<?xml version="1.0" encoding="UTF-8"?>
<svg xmlns="http://www.w3.org/2000/svg" xmlns:xlink="http://www.w3.org/1999/xlink" width="30pt" height="30.000001pt" viewBox="0 0 30 30.000001" version="1.2">
<defs>
<clipPath id="clip1">
  <path d="M 13 9.640625 L 23.121094 9.640625 L 23.121094 18.78125 L 13 18.78125 Z M 13 9.640625 "/>
</clipPath>
<clipPath id="clip2">
  <path d="M 7.15625 9.640625 L 18 9.640625 L 18 18.78125 L 7.15625 18.78125 Z M 7.15625 9.640625 "/>
</clipPath>
</defs>
<g id="surface1">
<g clip-path="url(#clip1)" clip-rule="nonzero">
<path style=" stroke:none;fill-rule:nonzero;fill:rgb(100%,59.609985%,0%);fill-opacity:1;" d="M 18.148438 9.675781 C 17.816406 9.675781 17.492188 9.703125 17.167969 9.761719 C 16.847656 9.820312 16.53125 9.90625 16.230469 10.019531 C 15.925781 10.132812 15.636719 10.273438 15.363281 10.4375 C 15.089844 10.605469 14.835938 10.792969 14.601562 11.003906 C 14.371094 11.214844 14.160156 11.441406 13.980469 11.691406 C 13.796875 11.9375 13.640625 12.199219 13.515625 12.476562 C 13.390625 12.75 13.292969 13.035156 13.230469 13.328125 C 13.167969 13.617188 13.132812 13.914062 13.132812 14.210938 C 13.132812 14.507812 13.167969 14.804688 13.230469 15.097656 C 13.292969 15.390625 13.390625 15.671875 13.515625 15.949219 C 13.640625 16.222656 13.796875 16.484375 13.980469 16.730469 C 14.160156 16.980469 14.371094 17.210938 14.601562 17.417969 C 14.835938 17.628906 15.089844 17.820312 15.363281 17.984375 C 15.636719 18.148438 15.925781 18.289062 16.230469 18.402344 C 16.53125 18.515625 16.847656 18.601562 17.167969 18.660156 C 17.492188 18.71875 17.816406 18.75 18.148438 18.75 C 18.476562 18.75 18.800781 18.71875 19.125 18.660156 C 19.449219 18.601562 19.761719 18.515625 20.066406 18.402344 C 20.371094 18.289062 20.660156 18.148438 20.933594 17.984375 C 21.207031 17.820312 21.460938 17.628906 21.691406 17.417969 C 21.925781 17.210938 22.132812 16.980469 22.316406 16.730469 C 22.5 16.484375 22.652344 16.222656 22.777344 15.949219 C 22.90625 15.671875 23 15.390625 23.0625 15.097656 C 23.128906 14.804688 23.160156 14.507812 23.160156 14.210938 C 23.160156 13.914062 23.128906 13.617188 23.0625 13.328125 C 23 13.035156 22.90625 12.75 22.777344 12.476562 C 22.652344 12.199219 22.5 11.9375 22.316406 11.691406 C 22.132812 11.441406 21.925781 11.214844 21.691406 11.003906 C 21.460938 10.792969 21.207031 10.605469 20.933594 10.4375 C 20.660156 10.273438 20.371094 10.132812 20.066406 10.019531 C 19.761719 9.90625 19.449219 9.820312 19.125 9.761719 C 18.800781 9.703125 18.476562 9.675781 18.148438 9.675781 Z M 18.148438 9.675781 "/>
</g>
<g clip-path="url(#clip2)" clip-rule="nonzero">
<path style=" stroke:none;fill-rule:nonzero;fill:rgb(83.529663%,0%,0%);fill-opacity:1;" d="M 12.417969 9.675781 C 12.089844 9.675781 11.761719 9.703125 11.441406 9.761719 C 11.117188 9.820312 10.804688 9.90625 10.5 10.019531 C 10.195312 10.132812 9.90625 10.273438 9.632812 10.4375 C 9.359375 10.605469 9.105469 10.792969 8.875 11.003906 C 8.640625 11.214844 8.433594 11.441406 8.25 11.691406 C 8.066406 11.9375 7.914062 12.199219 7.785156 12.476562 C 7.660156 12.75 7.566406 13.035156 7.5 13.328125 C 7.4375 13.617188 7.40625 13.914062 7.40625 14.210938 C 7.40625 14.507812 7.4375 14.804688 7.5 15.097656 C 7.566406 15.390625 7.660156 15.671875 7.785156 15.949219 C 7.914062 16.222656 8.066406 16.484375 8.25 16.730469 C 8.433594 16.980469 8.640625 17.210938 8.875 17.417969 C 9.105469 17.628906 9.359375 17.820312 9.632812 17.984375 C 9.90625 18.148438 10.195312 18.289062 10.5 18.402344 C 10.804688 18.515625 11.117188 18.601562 11.441406 18.660156 C 11.761719 18.71875 12.089844 18.75 12.417969 18.75 C 12.746094 18.75 13.074219 18.71875 13.394531 18.660156 C 13.71875 18.601562 14.03125 18.515625 14.335938 18.402344 C 14.640625 18.289062 14.929688 18.148438 15.203125 17.984375 C 15.476562 17.820312 15.730469 17.628906 15.960938 17.417969 C 16.195312 17.210938 16.402344 16.980469 16.585938 16.730469 C 16.769531 16.484375 16.921875 16.222656 17.050781 15.949219 C 17.175781 15.671875 17.269531 15.390625 17.335938 15.097656 C 17.398438 14.804688 17.429688 14.507812 17.429688 14.210938 C 17.429688 13.914062 17.398438 13.617188 17.335938 13.328125 C 17.269531 13.035156 17.175781 12.75 17.050781 12.476562 C 16.921875 12.199219 16.769531 11.9375 16.585938 11.691406 C 16.402344 11.441406 16.195312 11.214844 15.960938 11.003906 C 15.730469 10.792969 15.476562 10.605469 15.203125 10.4375 C 14.929688 10.273438 14.640625 10.132812 14.335938 10.019531 C 14.03125 9.90625 13.71875 9.820312 13.394531 9.761719 C 13.074219 9.703125 12.746094 9.675781 12.417969 9.675781 Z M 12.417969 9.675781 "/>
</g>
<path style=" stroke:none;fill-rule:nonzero;fill:rgb(100%,23.919678%,0%);fill-opacity:1;" d="M 13.132812 14.210938 C 13.132812 15.753906 13.984375 17.113281 15.28125 17.933594 C 16.582031 17.113281 17.429688 15.753906 17.429688 14.210938 C 17.429688 12.671875 16.582031 11.3125 15.28125 10.492188 C 13.984375 11.3125 13.132812 12.671875 13.132812 14.210938 Z M 13.132812 14.210938 "/>
</g>
</svg>
