<?xml version="1.0" encoding="UTF-8"?>
<svg xmlns="http://www.w3.org/2000/svg" xmlns:xlink="http://www.w3.org/1999/xlink" width="30pt" height="30.000001pt" viewBox="0 0 30 30.000001" version="1.2">
<defs>
<clipPath id="clip1">
  <path d="M 12 11.554688 L 15 11.554688 L 15 17.261719 L 12 17.261719 Z M 12 11.554688 "/>
</clipPath>
<clipPath id="clip2">
  <path d="M 18 11.554688 L 24 11.554688 L 24 17.261719 L 18 17.261719 Z M 18 11.554688 "/>
</clipPath>
<clipPath id="clip3">
  <path d="M 14 11.554688 L 20 11.554688 L 20 17.261719 L 14 17.261719 Z M 14 11.554688 "/>
</clipPath>
<clipPath id="clip4">
  <path d="M 5.535156 11.554688 L 13 11.554688 L 13 17.261719 L 5.535156 17.261719 Z M 5.535156 11.554688 "/>
</clipPath>
</defs>
<g id="surface1">
<g clip-path="url(#clip1)" clip-rule="nonzero">
<path style=" stroke:none;fill-rule:nonzero;fill:rgb(0%,44.709778%,100%);fill-opacity:1;" d="M 14.628906 11.65625 L 13.160156 11.65625 L 12.242188 17.175781 L 13.707031 17.175781 Z M 14.628906 11.65625 "/>
</g>
<g clip-path="url(#clip2)" clip-rule="nonzero">
<path style=" stroke:none;fill-rule:nonzero;fill:rgb(0%,44.709778%,100%);fill-opacity:1;" d="M 20.558594 16.347656 L 22.445312 16.347656 C 22.492188 16.539062 22.625 17.171875 22.625 17.171875 L 23.984375 17.171875 L 22.804688 11.664062 L 21.65625 11.664062 C 21.488281 11.644531 21.328125 11.675781 21.1875 11.761719 C 21.042969 11.847656 20.941406 11.96875 20.882812 12.125 L 18.710938 17.191406 L 20.25 17.191406 C 20.25 17.191406 20.5 16.496094 20.558594 16.347656 Z M 21.566406 13.675781 C 21.566406 13.675781 21.6875 13.355469 21.757812 13.148438 L 21.855469 13.625 L 22.214844 15.21875 L 20.996094 15.21875 C 21.101562 14.902344 21.566406 13.675781 21.566406 13.675781 Z M 21.566406 13.675781 "/>
</g>
<g clip-path="url(#clip3)" clip-rule="nonzero">
<path style=" stroke:none;fill-rule:nonzero;fill:rgb(0%,44.709778%,100%);fill-opacity:1;" d="M 18.816406 15.375 C 18.816406 14.742188 18.429688 14.265625 17.582031 13.875 C 17.070312 13.621094 16.753906 13.449219 16.757812 13.179688 C 16.761719 12.90625 17.023438 12.703125 17.601562 12.703125 C 17.980469 12.695312 18.347656 12.765625 18.695312 12.917969 L 18.828125 12.980469 L 19.03125 11.78125 C 18.605469 11.625 18.167969 11.546875 17.714844 11.550781 C 16.28125 11.550781 15.246094 12.296875 15.238281 13.371094 C 15.238281 14.164062 15.953125 14.605469 16.519531 14.867188 C 17.085938 15.132812 17.28125 15.3125 17.28125 15.566406 C 17.28125 15.933594 16.824219 16.105469 16.40625 16.105469 C 15.917969 16.113281 15.457031 16.011719 15.023438 15.800781 L 14.832031 15.714844 L 14.628906 16.949219 C 15.152344 17.148438 15.699219 17.246094 16.261719 17.242188 C 17.789062 17.253906 18.804688 16.515625 18.816406 15.375 Z M 18.816406 15.375 "/>
</g>
<g clip-path="url(#clip4)" clip-rule="nonzero">
<path style=" stroke:none;fill-rule:nonzero;fill:rgb(0%,44.709778%,100%);fill-opacity:1;" d="M 8.703125 17.167969 L 10.269531 17.167969 L 12.574219 11.664062 L 11.015625 11.664062 L 9.582031 15.425781 L 9.429688 14.660156 L 8.917969 12.128906 C 8.882812 11.980469 8.800781 11.859375 8.675781 11.773438 C 8.550781 11.683594 8.410156 11.644531 8.253906 11.660156 L 5.933594 11.660156 C 5.902344 11.667969 5.890625 11.6875 5.890625 11.714844 C 5.890625 11.742188 5.902344 11.761719 5.933594 11.769531 C 6.269531 11.859375 6.59375 11.972656 6.910156 12.117188 C 7.242188 12.265625 7.453125 12.507812 7.542969 12.851562 Z M 8.703125 17.167969 "/>
</g>
</g>
</svg>
